<svg width="124" height="45" viewBox="0 0 124 45" fill="none" xmlns="http://www.w3.org/2000/svg">
<path d="M0.84 0.199997H27.72C32.2 0.199997 35.4427 1.224 37.448 3.272C39.496 5.27733 40.52 8.52 40.52 13V19.4C40.52 23.88 39.496 27.144 37.448 29.192C35.4427 31.1973 32.2 32.2 27.72 32.2H12.36V45H0.84V0.199997ZM29 13C29 10.44 27.72 9.16 25.16 9.16H12.36V23.24H25.16C27.72 23.24 29 21.96 29 19.4V13ZM68.3575 11.08H80.1975L67.3975 45H54.5975L41.7975 11.08H53.6375L60.9975 34.12L68.3575 11.08ZM83.4025 0.199997H110.283C114.763 0.199997 118.005 1.224 120.011 3.272C122.059 5.27733 123.083 8.52 123.083 13V19.4C123.083 23.88 122.059 27.144 120.011 29.192C118.005 31.1973 114.763 32.2 110.283 32.2H94.9225V45H83.4025V0.199997ZM111.562 13C111.562 10.44 110.283 9.16 107.723 9.16H94.9225V23.24H107.723C110.283 23.24 111.562 21.96 111.562 19.4V13Z" fill="white" fill-opacity="0.8"/>
</svg>
